<?xml version="1.0" encoding="iso-8859-1"?>
<!-- Uploaded to: SVG Repo, www.svgrepo.com, Generator: SVG Repo Mixer Tools -->
<svg fill="#000000" height="800px" width="800px" version="1.1" id="Layer_1" xmlns="http://www.w3.org/2000/svg" xmlns:xlink="http://www.w3.org/1999/xlink" 
	 viewBox="0 0 472.615 472.615" xml:space="preserve">
<g>
	<g>
		<path d="M358.579,214.273c-57.857,0-104.76,46.901-104.76,104.759c0,57.859,46.903,104.76,104.76,104.76
			c57.858,0,104.761-46.901,104.761-104.76C463.34,261.174,416.437,214.273,358.579,214.273z M422.819,328.883h-54.394v54.385
			h-19.692v-54.385h-54.394v-19.692h54.394v-54.394h19.692v54.394h54.394V328.883z"/>
	</g>
</g>
<g>
	<g>
		<path d="M345.063,25.11c-46.089,0-86.343,24.526-108.756,61.156C213.895,49.635,173.64,25.11,127.552,25.11
			C57.107,25.11,0,82.217,0,152.663c0,83.646,66.164,195.134,236.308,294.843c16.659-9.761,32.314-19.637,47.014-29.589
			c-29.829-22.754-49.194-58.555-49.194-98.88c0-68.625,55.827-124.461,124.451-124.461c37.378,0,70.874,16.644,93.705,42.817
			c13.868-30.129,20.331-58.779,20.331-84.73C472.615,82.217,415.509,25.11,345.063,25.11z"/>
	</g>
</g>
</svg>